# xmcd
#
# Track frame offsets:
#	150
#	15530
#	33380
#	55659
#	76577
#	102203
#	119712
#	140841
#	162089
#	184579
#	204649
#	229412
#	258366
#
# Disc length: 4442 seconds
#
# Revision: 0
# Processed by: cddbd v1.5.1PL0 Copyright (c) Steve Scherf et al.
# Submitted via: EasyCDDAExtractor 5.0.5.1
#
DISCID=aa11580d
DTITLE=Here - Figura Porca
DYEAR=2004
DGENRE=Lo-Fi
TTITLE0=Hypnotized
TTITLE1=Sign N Spell
TTITLE2=Breathing Under
TTITLE3=Impressions
TTITLE4=2 Corps
TTITLE5=Porca Figura
TTITLE6=Know Where U Are (Pussiere D'Ange)
TTITLE7=Des Lignes Floues
TTITLE8=B Happy
TTITLE9=Escapade
TTITLE10=Chaotic Mind
TTITLE11=Silent Cacophony
TTITLE12=Data
EXTD=
EXTT0=
EXTT1=
EXTT2=
EXTT3=
EXTT4=
EXTT5=
EXTT6=
EXTT7=
EXTT8=
EXTT9=
EXTT10=
EXTT11=
EXTT12=
PLAYORDER=
